<svg width="22" height="22" viewBox="0 0 22 22" fill="none" xmlns="http://www.w3.org/2000/svg">
<path d="M2.75 5.5C4.26878 5.5 5.5 4.26878 5.5 2.75C5.5 1.23122 4.26878 0 2.75 0C1.23122 0 0 1.23122 0 2.75C0 4.26878 1.23122 5.5 2.75 5.5Z" fill="white"/>
<path d="M5.04167 7.33325H0.458333C0.205333 7.33325 0 7.53859 0 7.79159V21.5416C0 21.7946 0.205333 21.9999 0.458333 21.9999H5.04167C5.29467 21.9999 5.5 21.7946 5.5 21.5416V7.79159C5.5 7.53859 5.29467 7.33325 5.04167 7.33325Z" fill="white"/>
<path d="M18.6969 6.70164C16.738 6.03064 14.2878 6.62006 12.8183 7.67697C12.7679 7.47989 12.5883 7.33322 12.3747 7.33322H7.79134C7.53834 7.33322 7.33301 7.53856 7.33301 7.79156V21.5416C7.33301 21.7946 7.53834 21.9999 7.79134 21.9999H12.3747C12.6277 21.9999 12.833 21.7946 12.833 21.5416V11.6599C13.5737 11.0219 14.5279 10.8184 15.3089 11.1502C16.0661 11.4701 16.4997 12.2511 16.4997 13.2916V21.5416C16.4997 21.7946 16.705 21.9999 16.958 21.9999H21.5413C21.7943 21.9999 21.9997 21.7946 21.9997 21.5416V12.3685C21.9474 8.60189 20.1755 7.20764 18.6969 6.70164Z" fill="white"/>
</svg>
