<svg width="22" height="19" viewBox="0 0 22 19" fill="none" xmlns="http://www.w3.org/2000/svg">
<g clip-path="url(#clip0)">
<path d="M22 2.20054C21.1905 2.56173 20.3206 2.80584 19.4076 2.91563C20.3396 2.35356 21.0552 1.46358 21.3922 0.403168C20.5201 0.923538 19.5542 1.30149 18.5261 1.5052C17.7027 0.622586 16.5297 0.0710449 15.2315 0.0710449C12.7387 0.0710449 10.7178 2.10435 10.7178 4.61228C10.7178 4.9682 10.7578 5.31482 10.8347 5.64718C7.08347 5.4578 3.75768 3.64983 1.53153 0.902324C1.14301 1.57305 0.920429 2.35316 0.920429 3.18541C0.920429 4.76093 1.71733 6.15096 2.92842 6.96531C2.18849 6.94175 1.49258 6.73747 0.883975 6.39734C0.883653 6.41628 0.883653 6.43531 0.883653 6.45442C0.883653 8.65475 2.43948 10.4903 4.50429 10.9074C4.12551 11.0112 3.72678 11.0667 3.31509 11.0667C3.02427 11.0667 2.74149 11.0382 2.46596 10.9852C3.04028 12.7895 4.70716 14.1024 6.68224 14.1391C5.13752 15.357 3.19132 16.0831 1.0767 16.0831C0.712411 16.0831 0.353107 16.0616 0 16.0197C1.99745 17.3082 4.36998 18.0599 6.91891 18.0599C15.221 18.0599 19.7608 11.14 19.7608 5.13888C19.7608 4.94197 19.7565 4.74611 19.7478 4.55139C20.6296 3.91111 21.3949 3.11124 22 2.20054Z" fill="white"/>
</g>
<defs>
<clipPath id="clip0">
<rect width="22" height="18.0714" fill="white"/>
</clipPath>
</defs>
</svg>
